<?xml version="1.0" encoding="UTF-8"?>
<svg xmlns="http://www.w3.org/2000/svg" xmlns:xlink="http://www.w3.org/1999/xlink" width="170px" height="20px" version="1.1" viewBox="0 0 167 24">
<!--Generator: Sketch 49.2 (51160) - http://www.bohemiancoding.com/sketch-->
    <title>
        numen-logo
    </title>
    <desc>
        Created with Sketch.
    </desc>
    <defs/>
    <g id="icons" fill="none" fill-rule="evenodd" stroke="none" stroke-width="5">
        <g id="Numen-icons" fill="#FFFFFF" transform="translate(-696.000000, -56.000000)">
            <g id="numen-logo" transform="translate(696.000000, 56.000000)">
                <path d="M109.330935,10.7992806 L129.742446,10.7992806 L129.742446,12.0007194 L109.330935,12.0007194 L109.330935,24 L108.129496,24 L108.129496,0 L109.330935,0 L109.330935,10.7992806 Z M36.0431655,22.7992806 L58.8705036,22.7992806 L58.8705036,0 L60.0719424,0 L60.0719424,24 L60.0568345,24 L60.0568345,24.0007194 L34.8568345,24.0007194 L34.8568345,24 L34.8417266,24 L34.8417266,0 L36.0431655,0 L36.0431655,22.7992806 Z M141.784892,0 L141.784892,-0.00071942446 L166.984892,-0.00071942446 L166.984892,0 L167,0 L167,24 L165.798561,24 L165.798561,1.20071942 L142.971223,1.20071942 L142.971223,24 L141.769784,24 L141.769784,0 L141.784892,0 Z M0.0151079137,0 L0.0151079137,-0.00071942446 L25.2151079,-0.00071942446 L25.2151079,0 L25.2302158,0 L25.2302158,24 L24.028777,24 L24.028777,1.20071942 L1.20143885,1.20071942 L1.20143885,24 L0,24 L0,0 L0.0151079137,0 Z M69.6834532,0 L69.6834532,24 L68.4820144,24 L68.4820144,0 L69.6834532,0 Z M69.6923541,-0.000875853605 L84.0922209,4.79956 L84.0918186,6.00087585 L69.6919518,1.20044 L69.6923541,-0.000875853605 Z M99.7194245,0 L99.7194245,24 L98.5179856,24 L98.5179856,0 L99.7194245,0 Z M98.5090847,-0.000875853605 L98.509487,1.20044 L84.1096203,6.00087585 L84.109218,4.79956 L98.5090847,-0.000875853605 Z M109.345324,-0.00071942446 L133.345324,-0.00071942446 L133.345324,1.20071942 L109.345324,1.20071942 L109.345324,-0.00071942446 Z M109.345324,22.7992806 L133.345324,22.7992806 L133.345324,24.0007194 L109.345324,24.0007194 L109.345324,22.7992806 Z"/>
            </g>
        </g>
    </g>
</svg>
